<svg id="nf-logo" width="27" height="27" viewBox="0 0 27 27" fill="none" xmlns="http://www.w3.org/2000/svg">
                <path fill-rule="evenodd" clip-rule="evenodd" d="M0 11.2786V7.06541C0.17138 6.72247 0.458946 6.61905 0.839073 6.61978C4.62843 6.62711 8.41779 6.61999 12.207 6.63161C12.5361 6.63266 12.6547 6.53426 12.7365 6.22471C13.1781 4.55545 13.6472 2.8933 14.1109 1.2297C14.2655 0.675194 14.4934 0.549052 15.0629 0.696549C16.238 1.00065 17.4121 1.308 18.586 1.6165C19.1958 1.77676 19.319 1.98581 19.1574 2.58188C18.9851 3.2174 18.8086 3.85177 18.6344 4.48678C18.4439 5.18145 18.2539 5.87622 18.0491 6.62418H18.4865C20.9131 6.62418 23.3395 6.62407 25.7659 6.62439C25.8878 6.62439 26.0105 6.61926 26.1314 6.63088C26.4569 6.66218 26.6293 6.83417 26.6556 7.14968C26.6654 7.26787 26.6655 7.3871 26.6655 7.50581C26.6655 8.68317 26.6698 9.86053 26.6616 11.0379C26.6582 11.5169 26.4636 11.6956 25.9734 11.7134C25.8628 11.7174 25.7517 11.7149 25.6409 11.7149C22.749 11.715 19.8573 11.7177 16.9654 11.7101C16.7269 11.7094 16.6138 11.7714 16.5521 12.0063C16.2441 13.1751 15.9185 14.3395 15.6 15.5055C15.5754 15.5962 15.5588 15.6889 15.5279 15.8283H15.9916C19.2491 15.8283 22.5065 15.8282 25.764 15.8286C25.8969 15.8286 26.0323 15.8182 26.1621 15.8387C26.439 15.8825 26.6497 16.0201 26.6511 16.3195C26.6575 17.6802 26.6565 19.0411 26.6515 20.4017C26.6505 20.6622 26.4931 20.8246 26.236 20.8766C26.0862 20.9069 25.9296 20.9162 25.7759 20.9163C22.0088 20.9183 18.2416 20.9211 14.4745 20.9115C14.1929 20.9108 14.0757 20.989 14.0037 21.2579C13.5792 22.8423 13.1355 24.4219 12.6963 26.0027C12.5121 26.6657 12.2947 26.7852 11.6118 26.6068C10.4803 26.311 9.349 26.0141 8.21731 25.7192C7.60277 25.559 7.46608 25.3351 7.62973 24.7266C7.78393 24.1534 7.94725 23.5826 8.10424 23.01C8.29141 22.3271 8.47621 21.6436 8.67347 20.918H8.23149C5.79384 20.918 3.35629 20.9132 0.91875 20.9227C0.522193 20.9243 0.204883 20.831 0 20.4826V16.2695C0.171272 15.9269 0.458623 15.8228 0.838751 15.8238C3.80708 15.832 6.7753 15.825 9.74362 15.834C10.0018 15.8348 10.114 15.7548 10.1774 15.515C10.4897 14.3366 10.8171 13.1622 11.1374 11.9859C11.1585 11.9087 11.1645 11.8278 11.1831 11.715H10.7535C7.4751 11.715 4.19676 11.7114 0.91832 11.7196C0.521871 11.7205 0.20499 11.6262 0 11.2786Z" fill="currentColor"></path>
            </svg>